<?xml version="1.0" encoding="UTF-8" standalone="no"?>
<!DOCTYPE svg PUBLIC "-//W3C//DTD SVG 1.1//EN" "http://www.w3.org/Graphics/SVG/1.1/DTD/svg11.dtd">
<svg width="100%" height="100%" viewBox="0 0 981 411" version="1.1" xmlns="http://www.w3.org/2000/svg" xmlns:xlink="http://www.w3.org/1999/xlink" xml:space="preserve" xmlns:serif="http://www.serif.com/" style="fill-rule:evenodd;clip-rule:evenodd;stroke-linejoin:round;stroke-miterlimit:2;">
    <g transform="matrix(1,0,0,1,-1.00065,0.0152982)">
        <g>
            <g>
                <path d="M177.3,87.38C154.61,75.49 124.12,80.7 104.08,96.03C87.59,108.47 74.6,127.34 62.48,144.35C38.16,178.82 18.19,216.99 7.67,258.64C-2.02,296.98 -6.04,349.31 30.69,373.83C52.75,388.57 81.45,388.93 105.46,379.63C125.06,372.04 140.44,356.11 153.42,339.47C160.92,329.74 167.82,319.51 174.07,308.85C176.62,304.31 180.51,298.81 179.12,293.27C177.63,287 171.3,283.82 166.12,281.23C141.46,268.33 109.17,264.23 81.85,268.59C76.17,269.5 57.76,273.61 63.34,283.62C68.57,293.17 87.71,293.09 96.2,291.86C100.15,291.29 104.1,290.83 108.04,290.28C114.98,289.36 103.62,289.53 110.78,290.26C106.49,289.88 111.74,290.26 112.8,290.41C119.49,291.04 126.06,292.6 132.36,295.04C135.16,296.08 136.86,295.66 137.06,298.09C137.26,300.53 131.81,307.23 130.4,309.49C125.71,316.92 120.59,324.04 115.06,330.81C105.31,342.91 94.08,355.34 80.34,362.32C77.91,363.69 75.31,364.7 72.61,365.33C76.45,364.52 68.24,364.47 73.54,365.13L75.37,365.13C76.9,365.51 77,365.51 75.65,365.11L74.69,364.87C76.32,365.48 76.06,365.37 73.94,364.5C68.5,361.83 74.67,365.2 71.68,363.32C69.05,361.67 66.62,359.69 64.46,357.41C41.48,333.2 47.33,292.75 54.35,262.9C62.09,229.94 76.28,199.06 93.72,170.53C103.47,154.59 114.39,139.53 125.6,124.69C130.68,117.37 136.63,110.75 143.31,105.01C145.63,103.21 148.14,101.7 150.79,100.51C149.73,100.87 148.2,99.96 151.87,100.31C149.1,100.06 143.44,98.96 147.64,100.96C152.36,102.98 157.42,103.99 162.51,103.96C167.61,103.92 172.65,102.83 177.34,100.75C185.06,97.01 184.53,91.08 177.24,87.21" style="fill:white;fill-rule:nonzero;"/>
                <path d="M799.24,46.4C776.58,34.51 746.06,39.71 726.02,55.05C709.53,67.6 696.44,86.44 684.42,103.45C660.11,137.83 640.16,176.01 629.64,217.71C619.94,256.02 615.93,308.36 652.66,332.9C674.69,347.61 703.39,348 727.43,338.7C747.03,331.08 762.39,315.15 775.39,298.51C782.92,288.81 789.84,278.61 796.12,267.97C798.82,263.4 802.55,257.93 801.17,252.36C799.68,246.11 793.22,242.94 788.17,240.35C763.33,227.45 730.93,223.35 703.72,227.69C698.04,228.6 679.61,232.74 685.18,242.75C690.42,252.3 709.56,252.22 718.07,250.99C721.99,250.42 725.94,249.96 729.89,249.41C736.86,248.47 725.47,248.63 732.66,249.39C728.34,248.99 733.61,249.39 734.65,249.54C741.34,250.17 747.93,251.73 754.23,254.17C757.03,255.21 758.73,254.79 758.93,257.22C759.13,259.66 753.78,266.11 752.37,268.29C747.66,275.71 742.54,282.83 737.02,289.61C727.27,301.68 716.04,314.14 702.27,321.09C699.84,322.47 697.24,323.49 694.55,324.13C698.39,323.32 690.21,323.24 695.5,323.93L697.33,323.93C698.86,324.29 698.93,324.31 697.59,323.91L696.66,323.67C698.26,324.28 698.03,324.15 695.91,323.3C690.44,320.5 696.64,324 693.63,322.12C691.01,320.45 688.58,318.47 686.41,316.21C663.45,292 669.31,251.55 676.3,221.67C684.04,188.73 698.26,157.83 715.67,129.29C725.45,113.32 736.34,98.29 747.57,83.42C752.65,76.11 758.6,69.5 765.28,63.76C767.62,62.04 770.15,60.63 772.81,59.56C771.76,59.89 770.22,59.01 773.89,59.36C771.12,59.08 765.44,58.01 769.66,60.01C774.38,62.02 779.43,63.04 784.52,63C789.61,62.96 794.65,61.87 799.34,59.79C807.06,56.05 806.55,50.12 799.24,46.25" style="fill:white;fill-rule:nonzero;"/>
                <path d="M237.4,337.57C236.47,284.62 234.03,228.98 249.37,177.84C255.78,155.66 265.79,134.81 278.96,116.2C285.46,107.06 293.04,98.81 301.51,91.66C305.08,88.67 308.98,86.14 313.13,84.13C316.63,82.45 314.29,83.66 312.27,83.73C308.81,83.75 305.87,81.28 308.81,84.3C325.13,101.06 319.87,127.83 309.83,146.59C299.79,165.35 282.98,184.7 263.05,192.49C263.05,192.49 258.67,193.9 257.28,194.18C257.77,194.18 259.65,193.54 257.28,194.18C253.8,195.02 260.02,194.16 256.97,194.32C248.32,195.14 239.72,195.39 231.96,199.92C218.87,207.71 226.03,219.9 231.79,230.2C243.41,251.84 257.36,272.02 273.37,290.33C299.72,319.58 325.98,364.87 368.52,367.4C376.09,367.86 391.78,368.72 396.03,360.1C400.28,351.48 384.86,348.29 380.29,347.67C385.95,348.44 383.65,348.4 382.28,348.01C386.94,349.36 384.48,348.94 383.5,348.41C382.51,347.88 378.31,345.5 381.35,347.48C377.89,345.23 374.62,342.83 371.53,340.27C364.48,334.5 357.84,328.21 351.63,321.45C339.01,308 327.46,293.43 314.88,279.9C306.17,270.3 298.23,259.95 291.15,248.98C283.97,238.2 275.7,226.83 270.24,214.95C268.38,210.95 270.52,210.15 264.82,212.58L260.57,214.34C257.73,214.55 257.27,214.58 259.18,214.34C261.76,214.32 264.58,214.06 267.29,213.74C287.14,211.37 305.92,203.04 321.36,189.76C340.13,173.7 355.98,151.89 361.3,126.8C366.82,100.87 355.95,73.24 330,66.35C275.53,52.14 234.08,106.83 216.31,153.82C194.08,212.67 197.23,276.03 202.14,337.83C203.07,349.23 237.53,348.76 237.34,337.58" style="fill:white;fill-rule:nonzero;"/>
                <path d="M382.57,80.65C380.13,117.75 377.29,154.82 374.98,191.92C372.67,229.02 368.34,266.32 373.2,303.15C374.29,311.4 387.86,312.52 393.93,312.37C400.49,312.32 412.75,311.29 414.53,302.85C422.02,266.42 421.1,228.7 422.22,191.58C423.35,154.46 423.83,117.44 424,80.35C424.09,67.32 383.48,67.1 382.67,80.65" style="fill:white;fill-rule:nonzero;"/>
                <path d="M398.13,0C395.55,0.02 393.17,0.2 390.69,0.49L385.35,1.56C383.12,2.06 381,3 379.09,4.31C377.95,4.77 376.96,5.55 376.24,6.58C375.65,7.04 375.17,7.63 374.84,8.31C374.51,8.99 374.33,9.75 374.33,10.52L375.15,13.22L377.44,15.61C379.18,16.93 381.14,17.89 383.22,18.44C385.67,19.39 388.23,19.98 390.83,20.2C393.41,20.45 395.79,20.52 398.27,20.58C401.22,20.61 404.16,20.25 407.02,19.51C409.51,19.14 411.94,18.41 414.24,17.35C416.06,16.74 417.67,15.58 418.87,14.01C419.47,13.56 419.95,12.97 420.28,12.28C420.61,11.59 420.78,10.83 420.78,10.06C420.51,9.14 420.25,8.25 419.96,7.36C418.47,5.31 416.45,3.77 414.14,2.91L409.48,1.32C405.76,0.38 401.93,-0.07 398.11,-0.01" style="fill:white;fill-rule:nonzero;"/>
                <path d="M469.55,340.2C479.58,298.77 487.03,256.7 495.38,214.88C503.73,173.05 512.16,131.36 520.48,89.59L469.52,89.96C470.28,131.77 473.17,173.51 478.17,215C480.59,235.32 482.91,255.89 487.01,275.93C490.47,292.97 496.03,312.57 509.54,323.93C520.33,332.95 536.76,334.32 549.89,332.39C555.71,331.78 561.33,329.94 566.45,326.98C571.56,324.02 576.04,320 579.63,315.16C589.71,301.54 596.42,283.51 602.95,267.7C617.04,232.44 628.08,195.92 635.94,158.58C645.49,116.54 651.82,73.76 654.86,30.65C655.44,21.41 636.7,19.95 631.23,19.99C623.48,20.21 609.96,21.23 607.75,30.99C596.28,81.13 589.96,132.36 577.62,182.32C571.71,206.52 564.29,230.29 555.4,253.47C550.87,265.15 545.89,276.62 540.46,287.9C537.92,293.34 535.17,298.77 532.16,304.21C530.83,306.49 529.14,308.51 527.79,310.77C528.38,310.52 527.94,310.77 526.43,311.97C530.51,310.16 534.89,309.21 539.32,309.17L552.56,310.7C553.36,310.86 554.69,311.96 554.47,311.39C553.54,309.82 552.46,308.35 551.26,307C548.91,303.35 546.89,299.48 545.21,295.45C542.08,287.5 539.81,279.22 538.45,270.74C534.87,251.26 532.45,231.51 530.12,211.84C525.31,171.25 522.38,130.4 520.53,89.56C520.07,79.38 501.69,77.97 494.95,78.15C487.2,78.37 471.33,79.46 469.54,89.93C462.38,131.67 455.39,173.46 448.21,215.19C441.02,256.93 433.06,298.48 427.6,340.47C426.55,348.6 444.2,349.96 448.67,349.85C455.59,349.66 467.54,348.74 469.6,340.17" style="fill:white;fill-rule:nonzero;"/>
                <path d="M836.76,97.27C826.64,125.13 818.94,153.9 813.75,183.22C808.78,210.96 806.15,239.78 812.24,267.55C817.58,291.89 828.82,316.78 852.7,325.84C869.05,331.88 886.93,331.59 903.09,325.02C914.22,320.42 922.94,311.93 930.28,302.26C945.81,281.81 956.47,255.89 964.56,231.35C973.23,205.32 978.66,178.21 980.69,150.71C982.61,123.61 981.87,95.23 974.94,68.98C971.99,57.65 968.45,43.92 960.8,34.95C947.56,19.47 921.1,20.37 904.29,28.05C890.9,34.16 880.48,46.64 870.93,57.84C861.78,68.59 853.69,80.29 846.8,92.77C840.01,105.13 834.34,118.14 829.88,131.62C827.57,138.4 825.67,145.33 824.19,152.35C823,159.81 822.8,167.4 823.6,174.92C824.04,182.72 837.23,184.11 842.29,184.4C847.95,184.68 863.29,184.55 865.85,177.21C869.57,166.54 873.45,156.22 876.68,145.33C879.82,134.93 883.67,124.79 888.19,114.97C896.97,95.46 908.21,77.28 921.61,60.91C924.65,57.18 927.81,53.58 931.14,50.14C932.98,48.26 934.98,46.56 936.86,44.68C937.49,44.24 938.1,43.77 938.69,43.26C938.15,44.29 916.49,40.96 917.14,42.31C919.18,46.47 922.18,50.16 924.17,54.45C926.72,59.97 928.77,65.74 930.29,71.66C935.98,94.07 937.29,117.95 936.63,141.03C935.3,188.06 923.45,234.1 902.03,275.43C897.22,284.7 892.12,294.46 885,302.15C882.53,304.85 879.76,307.23 876.73,309.22C877.12,308.97 874.8,310.26 875.08,310.1C871.01,312.43 873.66,310.46 874.15,310.57C876.45,310.87 878.78,310.85 881.07,310.52C882.44,310.24 880.6,310.23 879.67,309.64C878.07,308.59 876.56,307.39 875.18,306.04C871.99,302.78 869.25,299.06 867.04,294.99C861.88,285.6 858.31,275.34 856.49,264.68C851.39,237.77 853.51,209.72 857.89,182.84C862.48,154.66 868.75,126.82 876.66,99.47C878.57,92.77 861.72,90.67 858.98,90.55C853.58,90.26 839.27,90.39 836.79,97.32" style="fill:white;fill-rule:nonzero;"/>
            </g>
            <path d="M650.39,381.31C666.34,392.09 685.46,397.8 704.16,401.63C724.96,405.89 746.29,408.26 767.47,409.57C809.33,412.16 853.2,409.54 891.94,392.17C908.78,384.61 925.14,373.48 934.79,357.38C940.61,347.67 925.45,338.84 919.64,348.53C917.67,351.82 916.89,352.91 914.57,355.52C912,358.41 909.16,361.07 906.16,363.5C901.08,367.62 893.72,371.92 887.2,375.1C871.01,383.01 853.14,387.44 835.39,390.08C815.29,393.07 794.72,393.35 774.45,392.41C754.58,391.49 734.64,389.5 715.07,385.93C695.66,382.39 675.79,377.35 659.24,366.17C655.31,363.52 649.52,365.42 647.24,369.32C644.71,373.64 646.45,378.66 650.39,381.32L650.39,381.31Z" style="fill:white;fill-rule:nonzero;"/>
        </g>
    </g>
</svg>
