<?xml version="1.0" encoding="UTF-8"?>
<svg id="Camada_1" xmlns="http://www.w3.org/2000/svg" version="1.1" viewBox="0 0 1004 530.58">
  <!-- Generator: Adobe Illustrator 29.8.2, SVG Export Plug-In . SVG Version: 2.1.1 Build 3)  -->
  <defs>
    <style>
      .st0 {
        fill: #fff;
      }
    </style>
  </defs>
  <path class="st0" d="M0,304.6h76.41l42.46-211.2H42.45L0,304.6ZM46.66,68.21h76.73l12.61-63.19H59.3l-12.64,63.19ZM106.13,364.03h76.42l46.69-228.18h57.31l8.45-42.45h-56.21l2.13-9.55c3.18-18,9.55-38.21,38.2-38.21,17,0,32.91,1.06,48.82,8.49l8.5-44.57C318.71,3.3,300.05.07,281.25,0,219.69,0,177.25,36.09,161.32,93.4h-26.53l-8.49,42.45h26.53l-46.7,228.18Z"/>
  <path class="st0" d="M348.11,308.85c90.21,0,152.83-81.73,152.83-148.59,0-49.88-45.64-71.11-90.21-71.11-98.73,0-152.83,88.14-152.83,148.59,0,49.88,46.7,71.11,90.21,71.11M590.11,308.85c90.21,0,152.83-81.73,152.83-148.59,0-49.88-46.7-71.11-91.28-71.11-98.7,0-152.82,88.09-152.82,148.59,0,49.88,47.76,71.11,91.27,71.11M867.11,304.6h75.35L1004,4.29h-76.41l-18.05,89.15-31.84-3.18c-74.29,0-142.21,95.51-142.21,163.44,0,27.59,18,55.19,48.82,55.19,43.51,0,74.29-21.23,87-42.46h4.24l-8.44,38.17ZM631.48,462.74c-59.31,49.14-135.49,73.14-212.26,66.86-100.83-6.37-173-83.85-185.73-165.57h4.24c23.35,51,79.6,98.71,148.59,106.13,70,8.49,153.89-23.34,199.52-66.86l-50.94-39.27h153.89l-34,163.45-22.29-63.68-1.02-1.06Z"/>
</svg>