<?xml version="1.0" encoding="UTF-8"?>
<svg id="Camada_1" xmlns="http://www.w3.org/2000/svg" version="1.1" viewBox="0 0 594 212">
  <!-- Generator: Adobe Illustrator 29.8.2, SVG Export Plug-In . SVG Version: 2.1.1 Build 3)  -->
  <defs>
    <style>
      .st0 {
        fill: #fff;
      }
    </style>
  </defs>
  <path class="st0" d="M156.94,108.12v-.28c0-26.91,20.53-49.16,49.16-49.16s48.89,22.24,48.89,48.88v.28c0,26.91-20.53,49.16-49.16,49.16s-48.89-22.24-48.89-48.88ZM237.98,108.12v-.28c0-18.4-13.24-33.78-31.88-33.78s-31.6,15.1-31.6,33.5v.28c0,18.4,13.24,33.78,31.87,33.78s31.6-15.1,31.6-33.5ZM279.31,68.02v79.91c0,4.67,3.51,8.24,8.1,8.24s8.1-3.57,8.1-8.24v-57.12l22.69,34.6c1.89,2.75,3.78,4.39,6.75,4.39s5.13-1.65,7.02-4.39l22.96-34.88v57.12c0,4.39,3.78,8.24,8.1,8.24,4.59,0,8.37-3.57,8.37-8.24v-79.64c0-4.67-3.51-8.51-8.37-8.51h-1.62c-3.24,0-5.67,1.37-7.56,4.39l-28.63,45.31-28.09-45.04c-1.62-2.47-4.05-4.39-7.56-4.39h-1.62c-4.86-.27-8.64,3.57-8.64,8.24ZM395.19,144.64l34.85-78.81c1.89-4.12,5.13-6.87,9.99-6.87h.81c4.59,0,7.83,2.47,9.72,6.87l34.85,78.81c.54,1.1.81,2.47.81,3.57,0,4.39-3.24,7.96-7.83,7.96-3.78,0-6.48-2.2-8.1-5.77l-7.56-17.85h-45.65l-7.83,18.4c-1.35,3.29-4.05,5.22-7.56,5.22-4.32,0-7.56-3.29-7.56-7.69,0-1.37.54-2.75,1.08-3.84ZM456.78,117.45l-16.48-38.45-16.48,38.45h32.95ZM508.91,68.57c0-4.67,3.51-8.51,8.37-8.51h26.74c29.44,0,49.97,20.6,49.97,47.23v.27c0,26.91-20.53,47.51-49.97,47.51h-26.74c-4.59,0-8.37-3.57-8.37-8.51v-77.99ZM544.03,140.25c19.72,0,32.68-13.46,32.68-32.13v-.28c0-18.67-12.97-32.4-32.68-32.4h-18.64v64.81h18.64ZM0,152.88c0,4.39,3.51,8.24,8.1,8.24,4.32,0,8.1-3.57,8.1-8.24v-80.19l99.13,83.76c2.97,2.47,4.86,4.39,8.91,4.39h.54c4.59,0,8.1-3.57,8.1-8.24V57.04c0-4.39-3.51-8.24-8.1-8.24-4.32,0-8.1,3.57-8.1,8.24v79.09L18.91,53.47c-2.7-2.47-4.86-4.67-8.91-4.67h-1.62c-4.86,0-8.37,3.84-8.37,8.51v95.57ZM47,107.84c-4.59,0-8.1,3.57-8.1,8.24v49.16c0,4.39,3.51,8.24,8.1,8.24,4.32,0,8.1-3.57,8.1-8.24v-49.43c0-4.39-3.51-7.96-8.1-7.96ZM86.17,140.52c-4.59,0-8.1,3.57-8.1,8.24v16.48c0,4.39,3.51,8.24,8.1,8.24,4.32,0,8.1-3.57,8.1-8.24v-16.48c-.27-4.67-3.78-8.24-8.1-8.24ZM86.17,38.36c-4.59,0-8.1,3.57-8.1,8.24v46.41c0,4.39,3.51,8.24,8.1,8.24,4.32,0,8.1-3.57,8.1-8.24v-46.41c-.27-4.67-3.78-8.24-8.1-8.24ZM47,38.36c-4.59,0-8.1,3.57-8.1,8.24v13.73c0,4.39,3.51,8.24,8.1,8.24,4.32,0,8.1-3.57,8.1-8.24v-13.73c0-4.67-3.51-8.24-8.1-8.24Z"/>
</svg>