<?xml version="1.0" encoding="UTF-8"?>
<svg id="svg4" xmlns="http://www.w3.org/2000/svg" xmlns:svg="http://www.w3.org/2000/svg" xmlns:sodipodi="http://sodipodi.sourceforge.net/DTD/sodipodi-0.dtd" xmlns:rdf="http://www.w3.org/1999/02/22-rdf-syntax-ns#" xmlns:inkscape="http://www.inkscape.org/namespaces/inkscape" xmlns:dc="http://purl.org/dc/elements/1.1/" xmlns:cc="http://creativecommons.org/ns#" version="1.1" viewBox="0 0 700 700">
  <!-- Generator: Adobe Illustrator 29.8.2, SVG Export Plug-In . SVG Version: 2.1.1 Build 3)  -->
  <defs>
    <style>
      .st0 {
        fill: #fff;
      }
    </style>
  </defs>
  <sodipodi:namedview id="namedview6" bordercolor="#666666" borderopacity="1" gridtolerance="10" guidetolerance="10" inkscape:current-layer="svg4" inkscape:cx="110.57842" inkscape:cy="299.02046" inkscape:pageopacity="0" inkscape:pageshadow="2" inkscape:window-height="1017" inkscape:window-maximized="1" inkscape:window-width="1920" inkscape:window-x="-8" inkscape:window-y="-8" inkscape:zoom="0.417193" objecttolerance="10" pagecolor="#ffffff" showgrid="false"/>
  <path id="path2" class="st0" d="M139.56,258.91c-40.9-1.6-94.09,2.59-129.73,2.46-3.21-.05-5.86,2.52-5.91,5.73,0,.02,0,.04,0,.07v30.2c0,8,13.03,4.23,15.49,27.94.6,6.01.6,12.07,0,18.08-2.33,23.83-15.49,20.69-15.49,28.37v33.45c0,3.19,2.58,5.79,5.77,5.8.05,0,.09,0,.14,0h108.3c5.81,0,6.62-6.99,6.62-15.05,0-6.2,1.72-16.15-5.92-17.08-9.68-1.2-16.74-5.45-25.04-13-2.46-2.22-4.05-2.86.47-8.33,4.51-5.47,4.43-2.96,7.36-1.06,8.68,6.82,19.27,7.92,27.11,8.21,37.12.44,66.75-14.24,67.29-50.24.36-23.03-15.3-55.24-56.45-55.54h0ZM110.24,319.82c-.26,2.37-2.37,4.09-4.75,3.87h-5.5c-2.37.21-4.49-1.5-4.76-3.87v-27.65c.27-2.37,2.39-4.09,4.76-3.87h5.5c2.37-.22,4.48,1.5,4.75,3.87v27.65h0ZM371.46,354.44h-70.52c-12.88-.19.47,13.12-13.19,13.02-4.69,0-6.7.12-6.7-6.69v-16.71c0-2.39-.56-6.01,5.98-5.41,73.58,6.59,88.91-4.21,88.9-27.69,0-26.69-36.23-41.22-87.68-41.22-60.86,0-87.62,22.07-87.37,70.82.22,43.26,23.9,70.45,87.37,70.45,32.06,0,86.42-10.11,86.42-53.37,0-1.76-1.41-3.2-3.17-3.21-.01,0-.03,0-.04,0h0ZM280.64,296.11c0-4.46,6.53-3.72,10.13-3.71,2.31-.24,4.39,1.41,4.69,3.71v16.1c0,4.46-6.53,3.73-10.13,3.73-2.31.22-4.38-1.43-4.68-3.73v-16.1h0ZM493.79,276.1c-5.44,0-10.08-3.96-10.94-9.33-.72-5.31-2.94-5.8-6.2-5.8h-64.85c-2.65-.03-4.98,1.74-5.67,4.29-3.02,10.24-9.76,18.99-18.9,24.52-1.62,1.1-2.59,2.93-2.59,4.89v23.93c0,10.22,12.22,1.82,12.55,11.77-.16,3.24-1.94,30.72-2.17,35.72-1.94,39.87,33.36,44.95,66.54,44.97,71.93,0,71.64-47.26,67.13-79.22-.16-3.15-2.66-5.68-5.81-5.89h-29.72c-2.37,0-4.51,1.44-5.4,3.64-.28.71-.42,1.48-.41,2.25v17.51c0,3.11-2.51,5.64-5.62,5.64-.01,0-.02,0-.04,0-4.65,0-8.25,1.06-8.36-5.64v-36.25c0-3.12,2.54-5.65,5.67-5.64h43.09c3.25-.01,5.88-2.64,5.91-5.89.15-33.7,2.46-23.96-34.2-25.47h0ZM690.17,317.85c3.18-.11,5.74-2.63,5.91-5.81v-30.25c0-2.38-1.44-4.51-3.65-5.38-.72-.28-1.48-.42-2.25-.41l-144.54-.1c-3.21,0-5.81,2.62-5.81,5.83,0,.02,0,.04,0,.07v60.05c0,3.2,2.59,5.79,5.78,5.8,0,0,.02,0,.02,0,0,0,16.85,6.32,28.35-27.15,2.11-6.15,5.98-5.06,10.07-3.4,2.93,1.1,3.1,4.21,2.21,7.21-7.15,24.6-15.1,41.54-40.67,44.11-3.17.17-5.68,2.73-5.81,5.9v30.18c0,3.2,2.59,5.79,5.78,5.8,0,0,.02,0,.02,0h144.55c3.22.05,5.86-2.53,5.91-5.74,0-.02,0-.04,0-.05v-59.99c0-2.38-1.44-4.51-3.65-5.38-.72-.28-1.48-.42-2.25-.41,0,0-16.85-6.32-28.37,27.15-2.09,6.14-5.97,5.06-10.05,3.4-2.92-1.1-3.1-4.21-2.22-7.21,7.2-24.71,15.18-41.6,40.68-44.19h0Z" inkscape:connector-curvature="0" inkscape:export-filename="C:\Users\suitedoalex\sites\petz-logo-2.png" inkscape:export-xdpi="121.24516" inkscape:export-ydpi="121.24516"/>
</svg>