<?xml version="1.0" encoding="UTF-8"?>
<svg id="Camada_1" xmlns="http://www.w3.org/2000/svg" version="1.1" viewBox="0 0 594 212">
  <!-- Generator: Adobe Illustrator 29.8.2, SVG Export Plug-In . SVG Version: 2.1.1 Build 3)  -->
  <defs>
    <style>
      .st0 {
        fill: #fff;
      }
    </style>
  </defs>
  <path id="path2" class="st0" d="M119.72,42.07c-34.45-1.35-79.26,2.18-109.29,2.07-2.7-.04-4.94,2.12-4.98,4.83v25.5c0,6.74,10.98,3.56,13.05,23.54.51,5.06.51,10.17,0,15.23-1.96,20.07-13.05,17.43-13.05,23.9v28.18c0,2.69,2.17,4.88,4.86,4.89h91.35c4.89,0,5.58-5.89,5.58-12.68,0-5.22,1.45-13.6-4.99-14.39-8.15-1.01-14.1-4.59-21.09-10.95-2.07-1.87-3.41-2.41.4-7.02,3.8-4.61,3.73-2.49,6.2-.89,7.31,5.75,16.23,6.67,22.84,6.92,31.27.37,56.23-12,56.69-42.32.3-19.4-12.89-46.53-47.55-46.79h0ZM95.02,93.38c-.22,2-2,3.45-4,3.26h-4.63c-2,.18-3.78-1.26-4.01-3.26v-23.29c.23-2,2.01-3.45,4.01-3.26h4.63c2-.19,3.77,1.26,4,3.26v23.29h0ZM315.08,122.54h-59.41c-10.85-.16.4,11.05-11.11,10.97-3.95,0-5.64.1-5.64-5.64v-14.08c0-2.01-.47-5.06,5.04-4.56,61.98,5.55,74.9-3.55,74.89-23.33,0-22.48-30.52-34.72-73.86-34.72-51.27,0-73.81,18.59-73.6,59.66.19,36.44,20.13,59.35,73.6,59.35,27.01,0,72.8-8.52,72.8-44.96,0-1.48-1.19-2.7-2.67-2.7h-.03,0ZM238.57,73.41c0-3.76,5.5-3.13,8.53-3.13,1.95-.2,3.7,1.19,3.95,3.13v13.56c0,3.76-5.5,3.14-8.53,3.14-1.95.19-3.69-1.2-3.94-3.14v-13.56h0ZM418.13,56.55c-4.58,0-8.49-3.34-9.22-7.86-.61-4.47-2.48-4.89-5.22-4.89h-54.63c-2.23-.03-4.2,1.47-4.78,3.61-2.54,8.63-8.22,16-15.92,20.66-1.36.93-2.18,2.47-2.18,4.12v20.16c0,8.61,10.29,1.53,10.57,9.92-.13,2.73-1.63,25.88-1.83,30.09-1.63,33.59,28.1,37.87,56.05,37.88,60.59,0,60.35-39.81,56.55-66.74-.13-2.65-2.24-4.78-4.89-4.96h-25.04c-2,0-3.8,1.21-4.55,3.07-.24.6-.35,1.25-.35,1.9v14.75c0,2.62-2.11,4.75-4.73,4.75h-.03c-3.92,0-6.95.89-7.04-4.75v-30.54c0-2.63,2.14-4.76,4.78-4.75h36.3c2.74,0,4.95-2.22,4.98-4.96.13-28.39,2.07-20.18-28.81-21.46h0ZM583.56,91.72c2.68-.09,4.84-2.22,4.98-4.89v-25.48c0-2-1.21-3.8-3.07-4.53-.61-.24-1.25-.35-1.9-.35l-121.76-.08c-2.7,0-4.89,2.21-4.89,4.91v50.65c0,2.7,2.18,4.88,4.87,4.89h.02s14.19,5.32,23.88-22.87c1.78-5.18,5.04-4.26,8.48-2.86,2.47.93,2.61,3.55,1.86,6.07-6.02,20.72-12.72,34.99-34.26,37.16-2.67.14-4.78,2.3-4.89,4.97v25.42c0,2.7,2.18,4.88,4.87,4.89h121.79c2.71.04,4.94-2.13,4.98-4.84v-50.58c0-2-1.21-3.8-3.07-4.53-.61-.24-1.25-.35-1.9-.35,0,0-14.19-5.32-23.9,22.87-1.76,5.17-5.03,4.26-8.47,2.86-2.46-.93-2.61-3.55-1.87-6.07,6.07-20.82,12.79-35.04,34.27-37.23h0v-.03Z"/>
</svg>