<?xml version="1.0" encoding="UTF-8"?>
<svg id="Layer_1" xmlns="http://www.w3.org/2000/svg" xmlns:svg="http://www.w3.org/2000/svg" xmlns:sodipodi="http://sodipodi.sourceforge.net/DTD/sodipodi-0.dtd" xmlns:rdf="http://www.w3.org/1999/02/22-rdf-syntax-ns#" xmlns:inkscape="http://www.inkscape.org/namespaces/inkscape" xmlns:dc="http://purl.org/dc/elements/1.1/" xmlns:cc="http://creativecommons.org/ns#" version="1.1" viewBox="0 0 4096 4096">
  <!-- Generator: Adobe Illustrator 29.8.2, SVG Export Plug-In . SVG Version: 2.1.1 Build 3)  -->
  <defs>
    <style>
      .st0 {
        fill: #fff;
      }
    </style>
  </defs>
  <sodipodi:namedview id="namedview23" bordercolor="#666666" borderopacity="1" gridtolerance="10" guidetolerance="10" inkscape:current-layer="Layer_1" inkscape:cx="1714.4408" inkscape:cy="1229.5466" inkscape:pageopacity="0" inkscape:pageshadow="2" inkscape:window-height="837" inkscape:window-maximized="1" inkscape:window-width="1600" inkscape:window-x="-8" inkscape:window-y="-8" inkscape:zoom="0.093883515" objecttolerance="10" pagecolor="#ffffff" showgrid="false"/>
  <g id="g20" inkscape:export-filename="G:\Users\suitedoalex\sites\svg\sympla-logo-4.png" inkscape:export-xdpi="11.983138" inkscape:export-ydpi="11.983138">
    <path id="path4" class="st0" d="M4037.06,1878.95v592.17c0,9.21-7.37,15.66-15.66,15.66h-155.64c-9.21,0-15.66-7.37-15.66-15.66v-42.36c-41.44,46.97-102.23,76.44-186.03,76.44-163.01,0-298.39-143.67-298.39-329.7s134.46-329.7,298.39-329.7c83.81,0,144.59,28.55,186.03,76.44v-42.36c0-9.21,7.37-15.66,15.66-15.66h155.64c8.29-.92,15.66,5.53,15.66,14.74h0ZM3850.11,2174.57c0-93.94-62.62-151.96-148.27-151.96s-148.27,58.94-148.27,151.96,62.62,151.96,148.27,151.96c85.65.92,148.27-58.02,148.27-151.96Z" inkscape:connector-curvature="0"/>
    <path id="path6" class="st0" d="M8.84,2284.16l145.51-84.73c8.29-4.6,18.42-1.84,22.1,6.45,32.23,64.47,85.65,105.91,176.82,105.91s118.8-37.76,118.8-71.83c0-54.34-49.73-75.52-181.43-111.43-130.77-35.92-257.86-99.46-257.86-267.07s142.75-267.07,294.7-267.07c139.06,0,248.66,64.47,314.04,184.19,3.68,7.37.92,16.58-6.45,21.18l-141.83,82.89c-7.37,4.6-17.5,1.84-22.1-6.45-29.47-54.34-69.99-86.57-144.59-86.57-62.62,0-93.94,31.31-93.94,66.31,0,40.52,21.18,68.15,158.4,108.67,132.62,40.52,281.81,86.57,281.81,271.68,0,169.45-135.38,269.84-326.01,269.84-177.74,0-293.78-81.96-346.28-203.53-1.84-5.53.92-14.74,8.29-18.42Z" inkscape:connector-curvature="0"/>
    <path id="path8" class="st0" d="M1315.66,1863.29c11.05,0,18.42,11.05,14.74,21.18l-206.29,586.64c-68.15,193.4-174.98,273.52-341.67,269.84-8.29,0-15.66-7.37-15.66-15.66v-144.59c0-8.29,6.45-15.66,15.66-15.66,75.52-2.76,113.28-30.39,139.06-97.62,1.84-3.68,1.84-8.29,0-11.97l-238.53-570.07c-4.6-10.13,3.68-22.1,14.74-22.1h171.3c6.45,0,12.89,4.6,14.74,10.13l135.38,372.98,114.2-372.06c1.84-6.45,8.29-11.05,15.66-11.05h166.69Z" inkscape:connector-curvature="0"/>
    <path id="path10" class="st0" d="M3037.83,2176.41c0,186.95-135.38,330.62-299.31,330.62-83.81,0-145.51-28.55-186.95-76.44v291.94c0,10.13-8.29,17.5-17.5,17.5h-152.88c-10.13,0-17.5-8.29-17.5-17.5v-841.74c0-10.13,8.29-17.5,17.5-17.5h151.96c10.13,0,17.5,8.29,17.5,17.5v41.44c41.44-47.89,103.15-76.44,186.95-76.44,164.85,0,300.23,144.59,300.23,330.62ZM2849.96,2176.41c0-93.94-62.62-152.88-149.19-152.88s-149.19,58.94-149.19,152.88,62.62,152.88,149.19,152.88,149.19-58.02,149.19-152.88Z" inkscape:connector-curvature="0"/>
    <path id="path12" class="st0" d="M3124.4,1573.19h156.56c9.21,0,15.66,7.37,15.66,15.66v883.19c0,9.21-7.37,15.66-15.66,15.66h-156.56c-9.21,0-15.66-7.37-15.66-15.66v-882.27c-.92-9.21,6.45-16.58,15.66-16.58Z" inkscape:connector-curvature="0"/>
    <path id="path14" class="st0" d="M2031.24,1836.58c-78.28,0-163.93,7.37-221.95,73.68-58.02-67.23-142.75-73.68-221.03-73.68-144.59,0-238.52,103.15-238.52,259.71v369.3c0,9.21,4.6,23.02,13.81,23.02h156.56c9.21,0,15.66-14.74,15.66-23.02v-352.72c0-62.62,28.55-103.15,88.41-103.15s96.7,44.21,96.7,117.88v337.99c0,9.21,10.13,23.02,19.34,23.02h139.98c9.21,0,19.34-14.74,19.34-23.02v-337.99c0-73.68,34.07-117.88,96.7-117.88s88.41,40.52,88.41,103.15v352.72c0,9.21,6.45,23.02,15.66,23.02h156.56c9.21,0,13.81-14.74,13.81-23.02v-369.3c-1.84-156.56-95.78-259.71-239.45-259.71h0Z" inkscape:connector-curvature="0"/>
    <circle id="circle16" class="st0" cx="3630" cy="1637.66" r="106.83"/>
    <circle id="circle18" class="st0" cx="3944.04" cy="1506.88" r="151.96"/>
  </g>
</svg>