<?xml version="1.0" encoding="UTF-8"?>
<svg id="Camada_1" xmlns="http://www.w3.org/2000/svg" version="1.1" viewBox="0 0 594 212">
  <!-- Generator: Adobe Illustrator 29.8.2, SVG Export Plug-In . SVG Version: 2.1.1 Build 3)  -->
  <defs>
    <style>
      .st0 {
        fill: #fff;
      }
    </style>
  </defs>
  <g id="g20">
    <path id="path4" class="st0" d="M579.61,81.98v84.14c0,1.31-1.05,2.22-2.22,2.22h-22.11c-1.31,0-2.22-1.05-2.22-2.22v-6.02c-5.89,6.67-14.53,10.86-26.43,10.86-23.16,0-42.4-20.41-42.4-46.84s19.1-46.84,42.4-46.84c11.91,0,20.54,4.06,26.43,10.86v-6.02c0-1.31,1.05-2.23,2.22-2.23h22.11c1.18-.13,2.22.79,2.22,2.09h0ZM553.05,123.98c0-13.35-8.9-21.59-21.07-21.59s-21.07,8.37-21.07,21.59,8.9,21.59,21.07,21.59c12.17.13,21.07-8.24,21.07-21.59Z"/>
    <path id="path6" class="st0" d="M7.27,139.55l20.67-12.04c1.18-.65,2.62-.26,3.14.92,4.58,9.16,12.17,15.05,25.12,15.05s16.88-5.37,16.88-10.21c0-7.72-7.07-10.73-25.78-15.83-18.58-5.1-36.64-14.13-36.64-37.95s20.28-37.95,41.87-37.95c19.76,0,35.33,9.16,44.62,26.17.52,1.05.13,2.36-.92,3.01l-20.15,11.78c-1.05.65-2.49.26-3.14-.92-4.19-7.72-9.94-12.3-20.54-12.3-8.9,0-13.35,4.45-13.35,9.42,0,5.76,3.01,9.68,22.51,15.44,18.84,5.76,40.04,12.3,40.04,38.6,0,24.08-19.24,38.34-46.32,38.34-25.25,0-41.74-11.65-49.2-28.92-.26-.79.13-2.09,1.18-2.62h0Z"/>
    <path id="path8" class="st0" d="M192.95,79.76c1.57,0,2.62,1.57,2.09,3.01l-29.31,83.35c-9.68,27.48-24.86,38.86-48.55,38.34-1.18,0-2.23-1.05-2.23-2.22v-20.54c0-1.18.92-2.22,2.23-2.22,10.73-.39,16.1-4.32,19.76-13.87.26-.52.26-1.18,0-1.7l-33.89-81c-.65-1.44.52-3.14,2.09-3.14h24.34c.92,0,1.83.65,2.09,1.44l19.24,52.99,16.23-52.86c.26-.92,1.18-1.57,2.23-1.57h23.68,0Z"/>
    <path id="path10" class="st0" d="M437.64,124.25c0,26.56-19.24,46.98-42.53,46.98-11.91,0-20.67-4.06-26.56-10.86v41.48c0,1.44-1.18,2.49-2.49,2.49h-21.72c-1.44,0-2.49-1.18-2.49-2.49v-119.6c0-1.44,1.18-2.49,2.49-2.49h21.59c1.44,0,2.49,1.18,2.49,2.49v5.89c5.89-6.8,14.66-10.86,26.56-10.86,23.42,0,42.66,20.54,42.66,46.98h0ZM410.95,124.25c0-13.35-8.9-21.72-21.2-21.72s-21.2,8.37-21.2,21.72,8.9,21.72,21.2,21.72,21.2-8.24,21.2-21.72h0Z"/>
    <path id="path12" class="st0" d="M449.94,38.54h22.24c1.31,0,2.22,1.05,2.22,2.23v125.49c0,1.31-1.05,2.22-2.22,2.22h-22.24c-1.31,0-2.22-1.05-2.22-2.22V40.89c-.13-1.31.92-2.36,2.22-2.36h0Z"/>
    <path id="path14" class="st0" d="M294.62,75.96c-11.12,0-23.29,1.05-31.54,10.47-8.24-9.55-20.28-10.47-31.4-10.47-20.54,0-33.89,14.66-33.89,36.9v52.47c0,1.31.65,3.27,1.96,3.27h22.24c1.31,0,2.23-2.09,2.23-3.27v-50.12c0-8.9,4.06-14.66,12.56-14.66s13.74,6.28,13.74,16.75v48.02c0,1.31,1.44,3.27,2.75,3.27h19.89c1.31,0,2.75-2.09,2.75-3.27v-48.02c0-10.47,4.84-16.75,13.74-16.75s12.56,5.76,12.56,14.66v50.12c0,1.31.92,3.27,2.22,3.27h22.24c1.31,0,1.96-2.09,1.96-3.27v-52.47c-.26-22.24-13.61-36.9-34.02-36.9h0Z"/>
    <circle id="circle16" class="st0" cx="521.78" cy="47.7" r="15.18"/>
    <circle id="circle18" class="st0" cx="566.4" cy="29.12" r="21.59"/>
  </g>
</svg>