<?xml version="1.0" encoding="utf-8"?>
<!-- Generator: Adobe Illustrator 26.0.3, SVG Export Plug-In . SVG Version: 6.00 Build 0)  -->
<svg version="1.0" id="katman_1" xmlns="http://www.w3.org/2000/svg" xmlns:xlink="http://www.w3.org/1999/xlink" x="0px" y="0px"
	 viewBox="0 0 42.9 31.6" style="enable-background:new 0 0 42.9 31.6;" xml:space="preserve">
<style type="text/css">
	.st0{fill:#B22234;}
	.st1{fill:#FFFFFF;}
	.st2{fill:#3C3B6E;}
</style>
<path class="st0" d="M20,3.9v1.8h7.8C25.5,4.2,22.8,3.5,20,3.9z"/>
<path class="st1" d="M20,7.5h10.1c-0.7-0.7-1.4-1.3-2.3-1.8H20V7.5z"/>
<path class="st0" d="M20,9.3h11.5c-0.4-0.7-0.9-1.3-1.5-1.8H20V9.3z"/>
<path class="st1" d="M20,11.2h12.5c-0.3-0.6-0.6-1.3-1-1.8H20V11.2z"/>
<path class="st0" d="M20,13h13.1c-0.1-0.6-0.3-1.2-0.6-1.8H20V13z"/>
<path class="st1" d="M20,14.9h13.4c0-0.6-0.1-1.2-0.3-1.8H20V14.9z"/>
<path class="st0" d="M20,16.7h13.4c0-0.3,0-0.6,0-0.9c0-0.3,0-0.6,0-0.9H20V16.7z"/>
<path class="st1" d="M9.5,16.7c0,0.6,0.1,1.2,0.3,1.8h23.3c0.1-0.6,0.2-1.2,0.3-1.8H9.5z"/>
<path class="st0" d="M10.4,20.4h22.2c0.2-0.6,0.4-1.2,0.6-1.8H9.8C9.9,19.2,10.1,19.8,10.4,20.4z"/>
<path class="st1" d="M11.3,22.2h20.2c0.4-0.6,0.7-1.2,1-1.8H10.4C10.6,21,11,21.7,11.3,22.2z"/>
<path class="st0" d="M12.8,24.1h17.3c0.5-0.6,1-1.2,1.5-1.8H11.3C11.8,22.9,12.3,23.5,12.8,24.1z"/>
<path class="st1" d="M15.1,25.9h12.8c0.8-0.5,1.6-1.1,2.3-1.8H12.8C13.5,24.8,14.2,25.4,15.1,25.9z"/>
<path class="st0" d="M21.4,27.8c2.3,0,4.5-0.6,6.4-1.8H15.1C17,27.1,19.2,27.8,21.4,27.8z"/>
<path class="st2" d="M20,14.9v-11C18.7,4,17.4,4.4,16.2,5l-0.1,0l0.2,0.5l-0.4-0.3l-0.4,0.3l0.1-0.2c-0.3,0.2-0.6,0.4-1,0.6l0,0.1
	h0.5l-0.4,0.3l0.2,0.5l-0.4-0.3L14,6.9l0.2-0.5l-0.1-0.1c-0.3,0.3-0.7,0.6-1,0.9l0.1,0.3h0.5l-0.4,0.3l0.2,0.5L13,7.9l-0.4,0.3
	l0.2-0.5l-0.1-0.1C12.3,8,12,8.3,11.8,8.7l0,0h0.5l-0.4,0.3L12,9.5l-0.4-0.3l-0.4,0.3c-0.2,0.4-0.5,0.8-0.7,1.2l0,0.1l-0.1,0
	c-0.3,0.6-0.5,1.3-0.7,1.9H10l0.2-0.5l0.2,0.5h0.5l-0.4,0.3l0.2,0.5l-0.4-0.3l-0.4,0.3l0.2-0.5L9.8,13c-0.2,0.9-0.3,1.9-0.4,2.8
	c0,0.3,0,0.6,0,0.9H20V14.9z M10.6,16.2l-0.4-0.3l-0.4,0.3l0.2-0.5l-0.4-0.3H10l0.2-0.5l0.2,0.5h0.5l-0.4,0.3L10.6,16.2z M12,14.9
	l-0.4-0.3l-0.4,0.3l0.2-0.5l-0.4-0.3h0.5l0.2-0.5l0.2,0.5h0.5l-0.4,0.3L12,14.9z M11.9,11.7l0.2,0.5l-0.4-0.3l-0.4,0.3l0.2-0.5
	l-0.4-0.3h0.5l0.2-0.5l0.2,0.5h0.5L11.9,11.7z M13.4,16.2L13,15.9l-0.4,0.3l0.2-0.5l-0.4-0.3h0.5l0.2-0.5l0.2,0.5h0.5l-0.4,0.3
	L13.4,16.2z M13.3,13.1l0.2,0.5L13,13.2l-0.4,0.3l0.2-0.5l-0.4-0.3h0.5l0.2-0.5l0.2,0.5h0.5L13.3,13.1z M13.3,10.4l0.2,0.5L13,10.6
	l-0.4,0.3l0.2-0.5l-0.4-0.3h0.5L13,9.6l0.2,0.5h0.5L13.3,10.4z M14.8,14.9l-0.4-0.3L14,14.9l0.2-0.5l-0.4-0.3h0.5l0.2-0.5l0.2,0.5
	h0.5l-0.4,0.3L14.8,14.9z M14.7,11.7l0.2,0.5l-0.4-0.3L14,12.2l0.2-0.5l-0.4-0.3h0.5l0.2-0.5l0.2,0.5h0.5L14.7,11.7z M14.7,9.1
	l0.2,0.5l-0.4-0.3L14,9.5l0.2-0.5l-0.4-0.3h0.5l0.2-0.5l0.2,0.5h0.5L14.7,9.1z M16.3,16.2l-0.4-0.3l-0.4,0.3l0.2-0.5l-0.4-0.3h0.5
	l0.2-0.5l0.2,0.5h0.5l-0.4,0.3L16.3,16.2z M16.1,13.1l0.2,0.5l-0.4-0.3l-0.4,0.3l0.2-0.5l-0.4-0.3h0.5l0.2-0.5l0.2,0.5h0.5
	L16.1,13.1z M16.1,10.4l0.2,0.5l-0.4-0.3l-0.4,0.3l0.2-0.5l-0.4-0.3h0.5l0.2-0.5l0.2,0.5h0.5L16.1,10.4z M16.1,7.7l0.2,0.5l-0.4-0.3
	l-0.4,0.3l0.2-0.5l-0.4-0.3h0.5l0.2-0.5L16,7.4h0.5L16.1,7.7z M17.7,14.9l-0.4-0.3l-0.4,0.3l0.2-0.5l-0.4-0.3h0.5l0.2-0.5l0.2,0.5
	h0.5l-0.4,0.3L17.7,14.9z M17.5,11.7l0.2,0.5l-0.4-0.3l-0.4,0.3l0.2-0.5l-0.4-0.3h0.5l0.2-0.5l0.2,0.5h0.5L17.5,11.7z M17.5,9.1
	l0.2,0.5l-0.4-0.3l-0.4,0.3L17,9.1l-0.4-0.3h0.5l0.2-0.5l0.2,0.5h0.5L17.5,9.1z M17.5,6.4l0.2,0.5l-0.4-0.3l-0.4,0.3L17,6.4
	l-0.4-0.3h0.5l0.2-0.5l0.2,0.5h0.5L17.5,6.4z M19.1,16.2l-0.4-0.3l-0.4,0.3l0.2-0.5L18,15.4h0.5l0.2-0.5l0.2,0.5h0.5l-0.4,0.3
	L19.1,16.2z M18.9,13.1l0.2,0.5l-0.4-0.3l-0.4,0.3l0.2-0.5L18,12.8h0.5l0.2-0.5l0.1,0.5h0.5L18.9,13.1z M18.9,10.4l0.2,0.5l-0.4-0.3
	l-0.4,0.3l0.2-0.5L18,10.1h0.5l0.2-0.5l0.2,0.5h0.5L18.9,10.4z M18.9,7.7l0.2,0.5l-0.4-0.3l-0.4,0.3l0.2-0.5L18,7.4h0.5l0.2-0.5
	l0.2,0.5h0.5L18.9,7.7z M18.9,5.1l0.2,0.5l-0.4-0.3l-0.4,0.3l0.2-0.5L18,4.8h0.5l0.2-0.5l0.1,0.5h0.5L18.9,5.1z"/>
<path class="st2" d="M12.9,7.4C12.9,7.4,12.9,7.4,12.9,7.4L12.9,7.4L12.9,7.4z"/>
<path class="st1" d="M12,9.5l-0.2-0.5l0.4-0.3h-0.5l0,0c-0.2,0.3-0.4,0.5-0.5,0.8l0.4-0.3L12,9.5z"/>
<polygon class="st1" points="11.6,10.9 11.4,11.4 10.9,11.4 11.4,11.7 11.2,12.2 11.6,11.9 12,12.2 11.9,11.7 12.3,11.4 11.8,11.4 
	"/>
<polygon class="st1" points="11.8,14.1 11.6,13.6 11.4,14.1 10.9,14.1 11.4,14.4 11.2,14.9 11.6,14.6 12,14.9 11.9,14.4 12.3,14.1 
	"/>
<polygon class="st1" points="14.4,8.3 14.3,8.8 13.8,8.8 14.2,9.1 14,9.5 14.4,9.2 14.8,9.5 14.7,9.1 15.1,8.8 14.6,8.8 "/>
<polygon class="st1" points="14.4,10.9 14.3,11.4 13.8,11.4 14.2,11.7 14,12.2 14.4,11.9 14.8,12.2 14.7,11.7 15.1,11.4 14.6,11.4 
	"/>
<polygon class="st1" points="14.6,14.1 14.4,13.6 14.3,14.1 13.8,14.1 14.2,14.4 14,14.9 14.4,14.6 14.8,14.9 14.7,14.4 15.1,14.1 
	"/>
<polygon class="st1" points="17.3,8.3 17.1,8.8 16.6,8.8 17,9.1 16.9,9.5 17.3,9.2 17.7,9.5 17.5,9.1 17.9,8.8 17.4,8.8 "/>
<polygon class="st1" points="17.3,10.9 17.1,11.4 16.6,11.4 17,11.7 16.9,12.2 17.3,11.9 17.7,12.2 17.5,11.7 17.9,11.4 17.4,11.4 
	"/>
<polygon class="st1" points="17.4,14.1 17.3,13.6 17.1,14.1 16.6,14.1 17,14.4 16.9,14.9 17.3,14.6 17.7,14.9 17.5,14.4 17.9,14.1 
	"/>
<path class="st1" d="M14,6.9l0.4-0.3l0.4,0.3l-0.2-0.5l0.4-0.3h-0.5l0-0.1c-0.2,0.1-0.3,0.2-0.5,0.3l0.1,0.1L14,6.9z"/>
<polygon class="st1" points="17.3,5.6 17.1,6.1 16.6,6.1 17,6.4 16.9,6.9 17.3,6.6 17.7,6.9 17.5,6.4 17.9,6.1 17.4,6.1 "/>
<path class="st1" d="M10.6,10.8C10.5,10.8,10.5,10.8,10.6,10.8l0,0.1L10.6,10.8z"/>
<path class="st1" d="M9.8,13.5l0.4-0.3l0.4,0.3l-0.2-0.5l0.4-0.3h-0.5l-0.2-0.5L10,12.8H9.8c0,0.1,0,0.1-0.1,0.2L9.9,13L9.8,13.5z"
	/>
<polygon class="st1" points="10.3,15.4 10.2,14.9 10,15.4 9.5,15.4 9.9,15.7 9.8,16.2 10.2,15.9 10.6,16.2 10.4,15.7 10.8,15.4 "/>
<path class="st1" d="M12.6,8.2L13,7.9l0.4,0.3l-0.2-0.5l0.4-0.3h-0.5l-0.1-0.3C13,7.2,13,7.3,12.9,7.4l0,0.1h0
	c-0.1,0.1-0.1,0.1-0.2,0.2l0.1,0.1L12.6,8.2z"/>
<polygon class="st1" points="13,9.6 12.9,10.1 12.4,10.1 12.8,10.4 12.6,10.9 13,10.6 13.4,10.9 13.3,10.4 13.7,10.1 13.2,10.1 "/>
<polygon class="st1" points="13,12.3 12.9,12.8 12.4,12.8 12.8,13.1 12.6,13.5 13,13.2 13.4,13.5 13.3,13.1 13.7,12.8 13.2,12.8 "/>
<polygon class="st1" points="13.2,15.4 13,14.9 12.9,15.4 12.4,15.4 12.8,15.7 12.6,16.2 13,15.9 13.4,16.2 13.3,15.7 13.7,15.4 "/>
<polygon class="st1" points="15.9,6.9 15.7,7.4 15.2,7.4 15.6,7.7 15.5,8.2 15.9,7.9 16.3,8.2 16.1,7.7 16.5,7.4 16,7.4 "/>
<polygon class="st1" points="15.9,9.6 15.7,10.1 15.2,10.1 15.6,10.4 15.5,10.9 15.9,10.6 16.3,10.9 16.1,10.4 16.5,10.1 16,10.1 
	"/>
<polygon class="st1" points="15.9,12.3 15.7,12.8 15.2,12.8 15.6,13.1 15.5,13.5 15.9,13.2 16.3,13.5 16.1,13.1 16.5,12.8 16,12.8 
	"/>
<polygon class="st1" points="16,15.4 15.9,14.9 15.7,15.4 15.2,15.4 15.6,15.7 15.5,16.2 15.9,15.9 16.3,16.2 16.1,15.7 16.5,15.4 
	"/>
<polygon class="st1" points="18.7,6.9 18.5,7.4 18,7.4 18.4,7.7 18.3,8.2 18.7,7.9 19.1,8.2 18.9,7.7 19.4,7.4 18.8,7.4 "/>
<polygon class="st1" points="18.7,9.6 18.5,10.1 18,10.1 18.4,10.4 18.3,10.9 18.7,10.6 19.1,10.9 18.9,10.4 19.4,10.1 18.8,10.1 
	"/>
<polygon class="st1" points="18.7,12.3 18.5,12.8 18,12.8 18.4,13.1 18.3,13.5 18.7,13.2 19.1,13.5 18.9,13.1 19.4,12.8 18.8,12.8 
	"/>
<polygon class="st1" points="18.8,15.4 18.7,14.9 18.5,15.4 18,15.4 18.4,15.7 18.3,16.2 18.7,15.9 19.1,16.2 18.9,15.7 19.4,15.4 
	"/>
<path class="st1" d="M15.9,5.2l0.4,0.3l-0.2-0.5l0.1,0c-0.2,0.1-0.4,0.2-0.7,0.3l-0.1,0.2L15.9,5.2z"/>
<polygon class="st1" points="18.7,4.3 18.5,4.8 18,4.8 18.4,5.1 18.3,5.5 18.7,5.2 19.1,5.5 18.9,5.1 19.4,4.8 18.8,4.8 "/>
</svg>
